# xmcd
#
# Track frame offsets:
#	150
#	29779
#	55729
#	79672
#	101670
#	128772
#	150677
#	175301
#	203653
#	226293
#
# Disc length: 3270 seconds
#
# Revision: 0
# Processed by: cddbd v1.5.1PL0 Copyright (c) Steve Scherf et al.
# Submitted via: dBpowerAMP V4.0
#
DISCID=7d0cc40a
DTITLE=Tam Doan - Chuyen Tau Hoang Hon
DYEAR=1998
DGENRE=Country
TTITLE0=Chuyen Tau Hoang Hon
TTITLE1=Chua Noi Cung Anh
TTITLE2=Tinh Nho Mau Quen
TTITLE3=Mau Tim Pensee
TTITLE4=Truoc Gio Tam Biet
TTITLE5=Tieng Xua
TTITLE6=Da Lat Hoang Hon
TTITLE7=Mot Nguoi Di
TTITLE8=Tieng Long Ni Non
TTITLE9=Dung Anh Nhe
EXTD=
EXTT0=
EXTT1=
EXTT2=
EXTT3=
EXTT4=
EXTT5=
EXTT6=
EXTT7=
EXTT8=
EXTT9=
PLAYORDER=
